<svg width="241" height="190" viewBox="0 0 241 190" fill="none" xmlns="http://www.w3.org/2000/svg">
  <path d="M157.652 186.93H186.167V166.072H196.992C226.035 166.072 240.292 149.966 240.292 120.396V69.9667C240.292 40.3959 226.035 24.2903 196.992 24.2903H186.167V2.11218H157.652V24.2903H146.827C117.784 24.2903 103.527 40.3959 103.527 69.9667V120.396C103.527 149.966 117.784 166.072 146.827 166.072H157.652V186.93ZM196.992 49.9008C206.233 49.9008 211.513 54.9173 211.513 68.1185V122.244C211.513 135.445 206.233 140.726 196.992 140.726H186.167V49.9008H196.992ZM157.652 140.726H146.827C137.586 140.726 132.306 135.445 132.306 122.244V68.1185C132.306 54.9173 137.586 49.9008 146.827 49.9008H157.652V140.726Z" fill="#191D20"/>
  <path d="M57.5575 57.8216C57.5575 72.607 50.9569 77.3594 40.1319 77.3594H31.419V103.762H38.5477C51.749 103.762 57.5575 110.099 57.5575 127.26V141.782C57.5575 158.151 51.749 162.64 42.5081 162.64C33.2672 162.64 27.4586 157.623 27.4586 144.422V122.244H0V142.574C0 172.145 14.7854 189.042 43.3002 189.042C71.8149 189.042 86.6003 172.145 86.6003 142.574V128.052C86.6003 109.307 80.7918 95.5772 66.2704 89.2406C80.2637 83.432 86.6003 71.0228 86.6003 51.2209V46.4685C86.6003 16.8976 71.8149 0 43.3002 0C14.7854 0 0.528051 16.3696 0.528051 45.9404V59.6697H27.1946V44.6203C27.1946 31.419 33.2672 26.4025 42.5081 26.4025C51.749 26.4025 57.5575 30.891 57.5575 47.5246V57.8216Z" fill="#FF4545"/>
</svg>
