<svg width="165" height="143" viewBox="0 0 165 143" fill="none" xmlns="http://www.w3.org/2000/svg">
<path d="M56.6739 92.9408L57.9852 88.7435L74.1633 93.7976L72.852 97.9949L56.6739 92.9408Z" fill="#EF4F47" stroke="black" stroke-width="0.671696"/>
<path d="M135.623 52.7884C136.614 52.1807 137.568 51.5953 138.462 51.0675L140.393 56.5911C138.56 57.473 136.677 58.4627 134.83 59.4332C134.653 59.5264 134.476 59.6194 134.299 59.7121C132.19 60.8201 130.139 61.8865 128.261 62.7309C126.379 63.5771 124.695 64.1888 123.315 64.4012C121.963 64.6093 120.988 64.4229 120.377 63.8037L118.59 58.6902C119.568 59.2183 120.732 59.3434 121.99 59.1959C123.658 59.0004 125.533 58.3222 127.463 57.4121C130.155 56.142 133.016 54.3876 135.623 52.7884Z" fill="white" stroke="black" stroke-width="0.671696"/>
<path d="M49.0489 130.366L52.1454 128.713L58.4149 140.458L55.3184 142.111L49.0489 130.366Z" fill="#FFC806" stroke="black" stroke-width="0.671696"/>
<path d="M11.0414 90.8433L11.2017 91.0861L11.4445 90.9258L21.0221 84.6009L21.2649 84.4405L21.1046 84.1978L19.0262 81.0505L18.8658 80.8077L18.6231 80.968L9.04545 87.2929L8.80265 87.4533L8.96299 87.6961L11.0414 90.8433Z" fill="#FFC806" stroke="black" stroke-width="0.581914"/>
<path d="M11.0255 35.6527L11.2413 35.4575L11.0461 35.2417L2.96872 26.3094L2.77357 26.0936L2.55777 26.2887L0.80498 27.8737L0.589173 28.0689L0.784324 28.2847L8.86173 37.2171L9.05688 37.4329L9.27269 37.2377L11.0255 35.6527Z" fill="#50DC66" stroke="black" stroke-width="0.581914"/>
<path d="M155.285 11.3925L155.491 11.5982L155.697 11.3925L164.213 2.87688L164.418 2.67114L164.213 2.4654L162.542 0.794392L162.336 0.588655L162.13 0.794393L153.614 9.31002L153.409 9.51576L153.614 9.7215L155.285 11.3925Z" fill="#50DC66" stroke="black" stroke-width="0.581914"/>
</svg>
