<svg width="248" height="38" viewBox="0 0 248 38" fill="none" xmlns="http://www.w3.org/2000/svg">
<path d="M173.73 5.61359V9.05676H164.683V31.0762H160.25V5.61359H173.73Z" fill="black"/>
<path d="M185.311 26.5688C185.311 28.0842 185.385 29.5856 185.529 31.0763H181.279C181.205 30.8825 181.138 30.6499 181.078 30.382C181.018 30.1142 180.973 29.8569 180.951 29.6138H180.768C180.352 30.0543 179.817 30.4525 179.158 30.805C178.498 31.1574 177.533 31.3371 176.264 31.3371C174.58 31.3371 173.216 30.8367 172.18 29.8358C171.14 28.8349 170.622 27.3935 170.622 25.5115C170.622 23.6296 171.39 22.1706 172.93 21.1344C174.47 20.0948 176.909 19.5767 180.257 19.5767H180.955V18.5406C180.955 17.5292 180.712 16.8208 180.222 16.4155C179.732 16.0102 178.964 15.8058 177.913 15.8058C177.353 15.8058 176.779 15.8622 176.19 15.9714C175.605 16.0807 175.048 16.2252 174.523 16.3979C173.998 16.5706 173.508 16.7679 173.057 16.9899C172.606 17.212 172.232 17.434 171.94 17.656V14.0437C172.599 13.656 173.48 13.2754 174.576 12.9124C175.672 12.5494 176.958 12.3661 178.424 12.3661C180.743 12.3661 182.474 12.8313 183.609 13.7582C184.743 14.6851 185.311 16.2745 185.311 18.5195V26.5794V26.5688ZM180.951 22.6851H180.328C178.446 22.6851 177.103 22.9001 176.299 23.3265C175.492 23.753 175.091 24.493 175.091 25.5433C175.091 26.3256 175.316 26.953 175.767 27.4287C176.218 27.9045 176.909 28.1442 177.836 28.1442C178.618 28.1442 179.263 28.0032 179.778 27.7212C180.292 27.4393 180.68 27.0939 180.951 26.6781V22.6851Z" fill="black"/>
<path d="M192.701 15.0305C193.262 14.1283 193.966 13.4446 194.809 12.9794C195.651 12.5142 196.585 12.2852 197.611 12.2852C198.636 12.2852 199.577 12.4931 200.43 12.9089C201.283 13.3248 202.016 13.9415 202.629 14.7592C203.239 15.5768 203.715 16.5777 204.056 17.7618C204.398 18.946 204.571 20.3063 204.571 21.8464C204.571 23.3865 204.395 24.7539 204.039 25.9486C203.683 27.1469 203.196 28.1548 202.573 28.9724C201.949 29.79 201.191 30.4068 200.303 30.8226C199.411 31.2385 198.439 31.4464 197.392 31.4464C195.461 31.4464 193.935 30.6041 192.814 28.9195V36.3944H188.455V12.6482H192.483L192.701 15.0305ZM196.292 27.9962C197.561 27.9962 198.509 27.5099 199.133 26.5301C199.757 25.5539 200.067 23.9891 200.067 21.8394C200.067 19.6896 199.774 18.1354 199.189 17.1697C198.604 16.2041 197.713 15.7213 196.515 15.7213C195.316 15.7213 194.379 16.1865 193.766 17.1134C193.156 18.0402 192.839 19.531 192.814 21.5821V21.8746C192.814 24.0244 193.1 25.5821 193.674 26.5442C194.248 27.5099 195.122 27.9927 196.292 27.9927V27.9962Z" fill="black"/>
<path d="M220.733 26.5688C220.733 28.0842 220.807 29.5856 220.951 31.0763H216.701C216.627 30.8825 216.56 30.6499 216.5 30.382C216.44 30.1142 216.394 29.8569 216.373 29.6138H216.19C215.774 30.0543 215.238 30.4525 214.579 30.805C213.92 31.1574 212.955 31.3371 211.686 31.3371C210.001 31.3371 208.638 30.8367 207.601 29.8358C206.562 28.8349 206.044 27.3935 206.044 25.5115C206.044 23.6296 206.812 22.1706 208.352 21.1344C209.892 20.0948 212.331 19.5767 215.679 19.5767H216.377V18.5406C216.377 17.5292 216.134 16.8208 215.644 16.4155C215.154 16.0102 214.386 15.8058 213.335 15.8058C212.775 15.8058 212.201 15.8622 211.612 15.9714C211.027 16.0807 210.47 16.2252 209.945 16.3979C209.42 16.5706 208.93 16.7679 208.479 16.9899C208.028 17.212 207.654 17.434 207.362 17.656V14.0437C208.021 13.656 208.902 13.2754 209.998 12.9124C211.094 12.5494 212.38 12.3661 213.846 12.3661C216.165 12.3661 217.896 12.8313 219.031 13.7582C220.165 14.6851 220.733 16.2745 220.733 18.5195V26.5794V26.5688ZM216.373 22.6851H215.749C213.868 22.6851 212.525 22.9001 211.721 23.3265C210.914 23.753 210.512 24.493 210.512 25.5433C210.512 26.3256 210.738 26.953 211.189 27.4287C211.64 27.9045 212.331 28.1442 213.258 28.1442C214.04 28.1442 214.685 28.0032 215.2 27.7212C215.714 27.4393 216.102 27.0939 216.373 26.6781V22.6851Z" fill="black"/>
<path d="M222.319 31.0761L228.585 21.3315L222.908 12.6478H227.415L232.909 21.1483V12.6478H237.269V21.1483L242.763 12.6478H247.158L241.59 21.1095L248 31.0761H243.056L237.269 22.0258V31.0761H232.909V22.0258L227.123 31.0761H222.323H222.319Z" fill="black"/>
<g clip-path="url(#clip0_197_25775)">
<rect x="113.733" y="0.0760498" width="38.006" height="38.006" rx="19.003" fill="black"/>
<path fill-rule="evenodd" clip-rule="evenodd" d="M132.774 4.789C137.931 4.789 142.448 7.52776 144.95 11.6301H120.598C123.1 7.52776 127.617 4.789 132.774 4.789ZM118.524 18.7752C118.568 16.3799 119.203 14.129 120.289 12.1622H145.259C146.345 14.129 146.98 16.3799 147.024 18.7752H118.524ZM118.524 19.3073C118.568 21.7025 119.203 23.9534 120.289 25.9203H132.736V19.3073H118.524ZM132.736 26.4524V33.2934C127.595 33.2799 123.094 30.5446 120.598 26.4524H132.736Z" fill="#FFDD1F"/>
</g>
<path d="M57.2492 35.8212H53.5269V31.5406H43.2161V35.8212H39.4937V28.265H40.7221C41.1192 27.4709 41.4418 26.5279 41.6899 25.436C41.9381 24.3193 42.1366 23.1406 42.2855 21.8998C42.4344 20.659 42.5336 19.3934 42.5833 18.103C42.6329 16.8126 42.6577 15.5843 42.6577 14.4179V12.8174H55.2764V28.265H57.2492V35.8212ZM14.6287 9.16948H12.6186C10.7575 9.16948 9.35541 9.59135 8.41243 10.4351C7.46944 11.2788 6.99795 12.3955 6.99795 13.7852C6.99795 14.5792 7.0848 15.2741 7.25851 15.8696C7.43222 16.4404 7.68037 16.9739 8.00297 17.4702C8.35039 17.9666 8.77225 18.438 9.26856 18.8847C9.78968 19.3066 10.3977 19.7533 11.0925 20.2248L13.3631 21.7509L6.81183 31.5406H1.9356L7.81686 22.7932C6.97313 22.1976 6.21626 21.5896 5.54625 20.9692C4.90105 20.3488 4.35511 19.6912 3.90843 18.9964C3.46175 18.3016 3.11434 17.5571 2.86618 16.763C2.64284 15.9441 2.53117 15.0383 2.53117 14.0457C2.53117 12.8049 2.7421 11.6758 3.16397 10.6584C3.61064 9.61616 4.25585 8.73521 5.09957 8.01557C5.94329 7.2711 6.98554 6.70035 8.22631 6.3033C9.4919 5.88144 10.9436 5.67051 12.5814 5.67051H19.1327V31.5406H14.6287V9.16948ZM62.9071 23.6493C62.9815 25.3367 63.3786 26.5899 64.0982 27.4088C64.8179 28.2277 66.0338 28.6372 67.7461 28.6372C68.7884 28.6372 69.8182 28.4635 70.8356 28.1161C71.8779 27.7438 72.734 27.3344 73.404 26.8877V30.275C72.7588 30.7217 71.9399 31.1063 70.9473 31.4289C69.9547 31.7515 68.7635 31.9128 67.3739 31.9128C64.5945 31.9128 62.448 31.1187 60.9343 29.5305C59.4453 27.9424 58.7009 25.5104 58.7009 22.2348C58.7009 20.8203 58.8498 19.5175 59.1476 18.3264C59.4702 17.1352 59.9541 16.1054 60.5993 15.2369C61.2445 14.3435 62.051 13.6611 63.0188 13.1896C64.0114 12.6933 65.1653 12.4451 66.4805 12.4451C67.5476 12.4451 68.5154 12.6064 69.3839 12.929C70.2773 13.2516 71.0341 13.7727 71.6545 14.4924C72.2749 15.212 72.7464 16.1426 73.069 17.2841C73.4164 18.4008 73.5901 19.7781 73.5901 21.4159V23.6493H62.9071ZM37.2604 12.8174V31.5406H33.203V23.6121H26.9123V31.5406H22.855V12.8174H26.9123V20.3364H33.203V12.8174H37.2604ZM80.9975 22.1231V31.5406H76.9402V12.8174H80.9975V21.8626L87.5488 12.8174H91.7922L85.4271 21.602L92.6112 31.5406H87.8466L80.9975 22.1231ZM101.284 31.9128C98.3559 31.9128 96.1846 31.0815 94.7701 29.4189C93.3804 27.7562 92.6856 25.3491 92.6856 22.1976C92.6856 20.7831 92.8593 19.4803 93.2067 18.2892C93.579 17.0732 94.1125 16.0434 94.8073 15.1996C95.527 14.3311 96.4079 13.6611 97.4502 13.1896C98.4924 12.6933 99.7084 12.4451 101.098 12.4451C102.165 12.4451 103.083 12.532 103.853 12.7057C104.622 12.8546 105.23 13.0655 105.676 13.3385V16.9119C105.255 16.6389 104.671 16.3784 103.927 16.1302C103.183 15.8821 102.401 15.758 101.582 15.758C100.068 15.758 98.9019 16.2915 98.083 17.3586C97.2889 18.4008 96.8918 19.9766 96.8918 22.0859C96.8918 24.096 97.2516 25.6841 97.9713 26.8505C98.6909 28.0168 99.8821 28.6 101.545 28.6C102.438 28.6 103.207 28.4883 103.853 28.265C104.523 28.0168 105.131 27.7066 105.676 27.3344V30.7589C105.155 31.1311 104.535 31.4165 103.815 31.615C103.12 31.8136 102.277 31.9128 101.284 31.9128ZM51.219 16.093H46.2311V16.8747C46.2311 17.6936 46.2063 18.6118 46.1567 19.6292C46.1071 20.6466 46.0202 21.6765 45.8961 22.7187C45.772 23.761 45.5983 24.766 45.375 25.7338C45.1765 26.7016 44.9159 27.5453 44.5933 28.265H51.219V16.093ZM66.4061 15.7208C65.2646 15.7208 64.4084 16.1426 63.8377 16.9863C63.2669 17.8053 62.9567 19.0088 62.9071 20.597H69.4584V20.1131C69.4584 19.4927 69.4087 18.9219 69.3095 18.4008C69.2102 17.8549 69.0365 17.3834 68.7884 16.9863C68.565 16.5893 68.2548 16.2791 67.8578 16.0558C67.4855 15.8324 67.0016 15.7208 66.4061 15.7208Z" fill="black"/>
<defs>
<clipPath id="clip0_197_25775">
<rect width="38.006" height="38.006" fill="white" transform="translate(113.733 6.10352e-05)"/>
</clipPath>
</defs>
</svg>
