<svg width="217" height="36" viewBox="0 0 217 36" fill="none" xmlns="http://www.w3.org/2000/svg">
<path fill-rule="evenodd" clip-rule="evenodd" d="M150.541 17.752C150.541 27.5562 142.593 35.5041 132.789 35.5041C122.984 35.5041 115.036 27.5562 115.036 17.752C115.036 7.94785 122.984 0 132.789 0C142.593 0 150.541 7.94785 150.541 17.752ZM144.623 8.82036C144.623 8.82036 140.764 12.3931 140.764 17.7522C140.764 23.1113 144.623 26.684 144.623 26.684L141.721 29.5869C141.721 29.5869 138.084 25.727 132.789 25.727C127.493 25.727 123.857 29.5869 123.857 29.5869L120.954 26.684C120.954 26.684 124.814 23.1113 124.814 17.7522C124.814 12.3931 120.954 8.82036 120.954 8.82036L123.857 5.91751C123.857 5.91751 127.525 9.77734 132.789 9.77734C138.052 9.77734 141.721 5.91751 141.721 5.91751L144.623 8.82036Z" fill="#FFC806"/>
<path d="M12.9352 30.4166H17.5251V4.053H10.8489C4.13472 4.053 0.606931 7.50492 0.606931 12.588C0.606931 16.6468 2.54152 19.0366 5.99344 21.5023L0 30.4166H4.96925L11.6455 20.4401L9.33156 18.8849C6.52451 16.9882 5.15891 15.5088 5.15891 12.3224C5.15891 9.51538 7.13144 7.61872 10.8868 7.61872H12.9352V30.4166ZM73.211 29.1268V25.4473C71.8075 26.3956 69.4557 27.2302 67.2555 27.2302C63.9554 27.2302 62.7036 25.6749 62.5139 22.4885H73.4007V20.0987C73.4007 13.4604 70.4799 10.9568 65.9658 10.9568C60.4655 10.9568 57.8481 15.1674 57.8481 20.9333C57.8481 27.5716 61.1104 30.7959 66.8762 30.7959C69.7591 30.7959 71.8834 30.0372 73.211 29.1268ZM101.433 30.7959C103.52 30.7959 104.999 30.4166 106.099 29.62V25.9404C104.961 26.737 103.596 27.2302 101.699 27.2302C98.4746 27.2302 97.1469 24.7266 97.1469 20.7815C97.1469 16.6468 98.778 14.5226 101.737 14.5226C103.482 14.5226 105.189 15.1295 106.099 15.6985V11.8672C105.151 11.3362 103.482 10.9568 101.244 10.9568C95.4778 10.9568 92.4811 15.0916 92.4811 20.8953C92.4811 27.2681 95.402 30.7959 101.433 30.7959ZM31.8639 11.3362V18.8849H25.8325V11.3362H21.3185V30.4166H25.8325V22.4506H31.8639V30.4166H36.3779V11.3362H31.8639ZM56.748 26.8508H54.7376V11.3362H41.5748V12.9673C41.5748 17.6331 41.2713 23.6645 39.6781 26.8508H38.2746V34.7789H42.4472V30.4166H52.5754V34.7789H56.748V26.8508ZM87.6257 30.4166H92.7466L85.5014 20.1367L91.8742 11.3362H87.3222L80.9494 20.1367V11.3362H76.4354V30.4166H80.9494V21.0471L87.6257 30.4166ZM65.8899 14.5226C68.128 14.5226 68.8108 16.3813 68.8108 18.7711V19.1504H62.5139C62.6277 16.1158 63.7278 14.5226 65.8899 14.5226ZM50.2235 26.8508H43.8508C45.1026 23.9679 45.444 18.7711 45.444 15.4709V14.9019H50.2235V26.8508Z" fill="white"/>
<path d="M160.024 4.053V30.4166H164.614V7.61872H172.808V30.4166H177.397V4.053H160.024Z" fill="white"/>
<path d="M185.349 11.3362H181.176V35.9169H185.69V28.1785C186.828 29.8855 188.497 30.7959 190.432 30.7959C194.832 30.7959 197.867 27.2681 197.867 20.8574C197.867 14.4846 194.908 10.9568 190.66 10.9568C188.535 10.9568 186.79 11.9431 185.577 13.8018L185.349 11.3362ZM189.294 27.2302C186.904 27.2302 185.69 25.2956 185.69 20.8953C185.69 16.4571 186.98 14.5226 189.522 14.5226C191.987 14.5226 193.201 16.4571 193.201 20.8574C193.201 25.2956 191.911 27.2302 189.294 27.2302Z" fill="white"/>
<path d="M208.546 10.9568C203.577 10.9568 200.125 14.4846 200.125 20.8953C200.125 27.2681 203.577 30.7959 208.546 30.7959C213.515 30.7959 216.967 27.2681 216.967 20.8574C216.967 14.4846 213.515 10.9568 208.546 10.9568ZM208.546 27.2302C206.043 27.2302 204.791 25.2956 204.791 20.8953C204.791 16.4571 206.043 14.5226 208.546 14.5226C211.05 14.5226 212.302 16.4571 212.302 20.8574C212.302 25.2956 211.05 27.2302 208.546 27.2302Z" fill="white"/>
</svg>
