<svg width="143" height="207" viewBox="0 0 143 207" fill="none" xmlns="http://www.w3.org/2000/svg">
<path d="M83.9349 199.42L85.6399 193.963L106.106 200.356L104.401 205.814L83.9349 199.42Z" fill="#EF4F47" stroke="black" stroke-width="0.632404"/>
<path d="M135.576 99.5419C136.555 98.9412 137.498 98.3626 138.383 97.8412L140.29 103.298C138.485 104.166 136.63 105.141 134.811 106.097C134.637 106.189 134.463 106.28 134.29 106.371C132.216 107.46 130.2 108.509 128.354 109.339C126.504 110.171 124.847 110.772 123.489 110.982C122.156 111.187 121.192 111.003 120.586 110.388L118.816 105.325C119.781 105.857 120.934 105.984 122.182 105.838C123.819 105.646 125.661 104.98 127.557 104.086C130.203 102.837 133.013 101.114 135.576 99.5419Z" fill="white" stroke="black" stroke-width="0.632404"/>
<path d="M125.543 158.963L129.607 156.794L137.559 171.692L133.496 173.861L125.543 158.963Z" fill="#FFC806" stroke="black" stroke-width="0.632404"/>
<path d="M42.785 107.368L42.9417 107.605L43.1788 107.449L51.1899 102.158L51.4271 102.002L51.2704 101.764L48.5689 97.6736L48.4123 97.4364L48.1751 97.5931L40.1641 102.883L39.9269 103.04L40.0835 103.277L42.785 107.368Z" fill="#50DC66" stroke="black" stroke-width="0.568474"/>
<path d="M75.6433 5.4736L75.5134 5.71478L75.7546 5.84469L91.1512 14.1384L91.3924 14.2683L91.5223 14.0271L94.0021 9.4236L94.132 9.18243L93.8908 9.05251L78.4942 0.758832L78.253 0.62892L78.1231 0.870093L75.6433 5.4736Z" fill="#FFC806" stroke="black" stroke-width="0.547875"/>
<path d="M13.4306 46.5023L13.6337 46.3185L13.45 46.1153L3.33142 34.9257L3.14769 34.7225L2.94451 34.9063L0.748787 36.8918L0.545604 37.0756L0.729339 37.2787L10.8479 48.4684L11.0317 48.6715L11.2348 48.4878L13.4306 46.5023Z" fill="#50DC66" stroke="black" stroke-width="0.547875"/>
</svg>
